<?xml version="1.0" encoding="UTF-8" standalone="no"?>
<!-- Created with Inkscape (http://www.inkscape.org/) -->

<svg viewBox="0 0 40 7" version="1.1">
  <defs id="defs2" />
  <g id="layer1" transform="matrix(1.0953653,0,0,1.0953653,-1.5920286,-62.231828)">
    <g style= id="g1082" transform="matrix(0.26458333,0,0,0.26458333,12.559464,58.138655)">
      <path fill-rule="evenodd" clip-rule="evenodd" d="M 2.00185,0 8.28906,12.5571 7.49834,14.1196 0.169678,0 Z M 22.3871,0 15.1163,14.1196 7.45977,0 h 1.7743 L 15.1163,11.051 C 15.412,10.4861 15.7463,9.83672 16.1191,9.10245 16.492,8.36823 16.8681,7.61205 17.2474,6.8339 17.6267,6.05574 18.0028,5.28701 18.3756,4.52769 18.7484,3.76837 19.086,3.07494 19.3881,2.4474 19.6903,1.81986 19.9442,1.28646 20.1499,0.847178 20.3556,0.407898 20.4906,0.125509 20.5549,0 Z M 36.2619,1.37431 V 0 h -9.3344 v 14.1384 h 9.3344 v -1.3742 h -7.9072 v -4.989 h 6.5958 V 6.40089 H 28.3547 V 1.37431 Z M 40.4167,14.1384 V 0 h 1.4271 v 12.7642 h 7.9073 v 1.3742 z M 53.9058,0 v 14.1384 h 6.9236 c 0.1029,0 0.3312,-0.0345 0.6847,-0.1035 0.3536,-0.0691 0.7361,-0.2228 1.1476,-0.4612 0.1928,-0.113 0.3953,-0.2605 0.6074,-0.4424 0.2122,-0.1821 0.4019,-0.4048 0.569,-0.6684 0.1672,-0.2636 0.3054,-0.5742 0.4147,-0.9318 0.1092,-0.3578 0.1639,-0.7751 0.1639,-1.252 0,-0.53969 -0.0708,-1.01036 -0.2121,-1.41198 C 64.0631,8.46549 63.8831,8.12035 63.6645,7.83169 63.4459,7.54301 63.1984,7.31082 62.922,7.13512 62.6455,6.9594 62.366,6.82134 62.083,6.72094 c 0.283,-0.27611 0.5272,-0.65577 0.7329,-1.13898 0.2057,-0.48321 0.3086,-1.06368 0.3086,-1.74143 0,-0.50203 -0.0547,-0.93502 -0.164,-1.299 C 62.8513,2.17756 62.7131,1.86379 62.5459,1.60023 62.3787,1.33666 62.1923,1.11702 61.9866,0.941306 61.7809,0.765596 61.5816,0.621263 61.3888,0.508306 61.1702,0.382798 60.9613,0.285531 60.762,0.216501 60.5627,0.147472 60.3827,0.0972684 60.222,0.0658915 60.0612,0.0345144 59.9294,0.0156885 59.8266,0.00941306 59.7237,0.00313766 59.6659,0 59.653,0 Z m 6.8851,12.7642 c 0.0514,0 0.1929,-0.022 0.4243,-0.066 0.2314,-0.0439 0.479,-0.1474 0.7425,-0.3105 0.2635,-0.1633 0.4983,-0.4111 0.704,-0.7438 0.2057,-0.3325 0.3085,-0.7875 0.3085,-1.3648 0,-0.57738 -0.1028,-1.03231 -0.3085,-1.36491 C 62.456,8.58159 62.2212,8.33058 61.9577,8.16114 61.6942,7.9917 61.4434,7.88502 61.2055,7.8411 60.9677,7.79717 60.8231,7.7752 60.7716,7.7752 H 55.333 v 4.989 z M 60.0676,6.32559 c -0.2249,0.05021 -0.3632,0.0753 -0.4146,0.0753 h -4.32 V 1.37431 h 4.32 c 0.0258,0 0.1478,0.01882 0.3664,0.05647 0.2186,0.03766 0.4565,0.13493 0.7136,0.29181 0.2572,0.15689 0.4918,0.40163 0.704,0.73422 0.2121,0.3326 0.3182,0.79384 0.3182,1.38372 0,0.57734 -0.0996,1.03545 -0.2989,1.37431 C 61.257,5.55372 61.032,5.81101 60.7812,5.98672 60.5306,6.16243 60.2927,6.27539 60.0676,6.32559 Z M 78.6386,0 v 1.37431 h -7.9072 v 5.02658 h 6.5958 V 7.7752 h -6.5958 v 4.989 h 7.9072 v 1.3742 H 69.3043 V 0 Z m 10.6927,8.11407 4.8216,6.02433 h 1.8904 L 90.4307,7.05981 96.0433,0 H 94.1529 L 89.3313,6.02437 84.7799,0 h -2.1407 l 5.6121,7.05981 -5.6121,7.07859 h 2.1407 z" id="path1073" />
    </g>
    <g style= id="g1985" transform="matrix(0.26458333,0,0,0.26458333,1.2295084,53.744029)">
      <path fill-rule="evenodd" clip-rule="evenodd" d="M 25.44089,11.678809 H 0.84629049 V 24.462908 H 2.1670905 V 12.967669 H 24.12009 v 4.238599 h -2.1896 v 0.0092 h -0.0158 c -0.0588,0.11475 -0.1823,0.37294 -0.3704,0.77456 -0.1882,0.40163 -0.4204,0.88931 -0.6968,1.46307 -0.2763,0.57375 -0.585,1.20773 -0.926,1.902 -0.341,0.69426 -0.6851,1.39706 -1.0319,2.10846 -0.3469,0.7115 -0.6909,1.4028 -1.0319,2.0742 -0.341,0.6712 -0.6467,1.2651 -0.9173,1.7814 l -5.3798,-10.10369 H 9.9378005 l 7.0025895,12.90929 6.0068,-11.6607 h 2.4918 v -0.01354 h 0.0019 z M 0.84629049,28.874908 h 0.006095 v -0.0142 H 9.3167105 l -6.04641,-11.64519 h 1.67569 l 5.7502495,11.48079 -0.7231495,1.4285 -0.0111,-0.0213 v 0.0151 h -7.7949 v 4.2713 H 24.12009 v -11.5273 h 1.3208 v 12.8162 H 0.84629049 Z M 34.54119,35.678808 V 11.678809 h 1.3568 v 23.999999 z" id="path1976" />
    </g>
  </g>
</svg>
